<svg width="58" height="59" viewBox="0 0 58 59" fill="none" xmlns="http://www.w3.org/2000/svg">
<g id="Group 58">
<ellipse id="Ellipse 13" cx="29" cy="29.5" rx="29" ry="29.5" fill="white"/>
<g id="Vector">
<path d="M36 37H22V23H31V21H22C20.9 21 20 21.9 20 23V37C20 38.1 20.9 39 22 39H36C37.1 39 38 38.1 38 37V28H36V37Z" fill="#EB6F2D"/>
<path d="M34 31H32V35H34V31Z" fill="#EB6F2D"/>
<path d="M26 28H24V35H26V28Z" fill="#EB6F2D"/>
<path d="M30 25H28V35H30V25Z" fill="#EB6F2D"/>
<path d="M36 23V21H34V23H32V25H34V27H36V25H38V23H36Z" fill="#EB6F2D"/>
</g>
</g>
</svg>
