<svg width="58" height="59" viewBox="0 0 58 59" fill="none" xmlns="http://www.w3.org/2000/svg">
<g id="Group 58">
<ellipse id="Ellipse 13" cx="29" cy="29.5" rx="29" ry="29.5" fill="white"/>
<g id="Vector">
<path d="M17.9545 37H39.0455C40.4955 37 41.6686 35.8 41.6686 34.3333L41.6818 19.6667C41.6818 18.2 40.4955 17 39.0455 17H17.9545C16.5045 17 15.3182 18.2 15.3182 19.6667V34.3333C15.3182 35.8 16.5045 37 17.9545 37ZM17.9545 19.6667H39.0455V34.3333H17.9545V19.6667Z" fill="#EB6F2D"/>
<path d="M43 38.3333H14V41H43V38.3333Z" fill="#EB6F2D"/>
<path d="M31.0968 23.04C29.2909 21.2133 26.3777 21.2133 24.5718 23.04C22.7659 24.8667 22.7659 27.8133 24.5718 29.64C26.1273 31.2133 28.5264 31.4267 30.3191 30.2667L33.0741 33.0533L34.4714 31.64L31.7164 28.8533C32.8632 27.04 32.6655 24.6133 31.0968 23.04ZM29.6995 28.2133C28.6714 29.2533 26.9973 29.2533 25.9691 28.2133C24.9409 27.1733 24.9409 25.48 25.9691 24.44C26.9973 23.4 28.6714 23.4 29.6995 24.44C30.7277 25.4933 30.7277 27.1733 29.6995 28.2133Z" fill="#EB6F2D"/>
</g>
</g>
</svg>
