<svg width="58" height="59" viewBox="0 0 58 59" fill="none" xmlns="http://www.w3.org/2000/svg">
<g id="Group 57">
<ellipse id="Ellipse 13" cx="29" cy="29.5" rx="29" ry="29.5" fill="white"/>
<path id="Vector" d="M34.016 25.685L24.182 16L22.631 17.5275L25.249 20.1058L19.584 25.685C18.935 26.3242 18.935 27.3533 19.584 27.9817L25.634 33.94C25.953 34.2542 26.382 34.4167 26.8 34.4167C27.218 34.4167 27.647 34.2542 27.966 33.94L34.016 27.9817C34.665 27.3533 34.665 26.3242 34.016 25.685ZM21.531 26.8333L26.8 21.6442L32.069 26.8333H21.531ZM36.7 28.4583C36.7 28.4583 34.5 30.8092 34.5 32.25C34.5 33.4417 35.49 34.4167 36.7 34.4167C37.91 34.4167 38.9 33.4417 38.9 32.25C38.9 30.8092 36.7 28.4583 36.7 28.4583ZM18 37.6667H40V42H18V37.6667Z" fill="#2334DE"/>
</g>
</svg>
